<svg width="15" height="16" viewBox="0 0 15 16" fill="none" xmlns="http://www.w3.org/2000/svg">
<g clip-path="url(#clip0_4937_791)">
<path d="M5.22345 0.518787C3.72472 1.06585 2.43222 2.10418 1.53579 3.48129C0.639358 4.85839 0.186256 6.50166 0.243035 8.16974C0.299813 9.83782 0.863479 11.4428 1.85124 12.7489C2.839 14.055 4.19879 14.9934 5.73088 15.4262C6.97297 15.7634 8.27432 15.7783 9.52306 15.4694C10.6543 15.202 11.7001 14.6301 12.5582 13.8097C13.4513 12.9297 14.0995 11.8103 14.4332 10.5717C14.7958 9.22484 14.8604 7.80843 14.6219 6.4312H7.64689V9.47557H11.6863C11.6056 9.96113 11.4326 10.4246 11.1777 10.8381C10.9228 11.2517 10.5912 11.6069 10.2028 11.8825C9.70955 12.2259 9.15349 12.4569 8.57033 12.5606C7.9855 12.6751 7.38563 12.6751 6.8008 12.5606C6.20801 12.4318 5.64725 12.1744 5.15431 11.8048C4.3623 11.2149 3.76761 10.3768 3.45509 9.41022C3.13739 8.42549 3.13739 7.35798 3.45509 6.37325C3.67755 5.68301 4.04529 5.05456 4.53088 4.53479C5.08657 3.92906 5.79009 3.49608 6.56426 3.28335C7.33843 3.07063 8.15333 3.08638 8.91955 3.32888C9.51814 3.52213 10.0655 3.85992 10.518 4.31531C10.9735 3.83853 11.4281 3.36053 11.882 2.88129C12.1164 2.62358 12.3719 2.37821 12.6028 2.11434C11.912 1.43804 11.1012 0.911761 10.2168 0.565642C8.60631 -0.0496561 6.84413 -0.0661916 5.22345 0.518787Z" fill="white"/>
<path d="M5.22617 0.519386C6.84671 -0.06599 8.60889 -0.0498897 10.2195 0.565008C11.1041 0.913478 11.9145 1.44229 12.6043 2.1211C12.3699 2.38497 12.1227 2.63158 11.8836 2.88805C11.4289 3.36565 10.9746 3.8416 10.5207 4.31591C10.0682 3.86052 9.52086 3.52272 8.92227 3.32948C8.1563 3.08613 7.34143 3.06947 6.56705 3.28132C5.79268 3.49317 5.08872 3.92536 4.53242 4.53046C4.04684 5.05023 3.67909 5.67868 3.45664 6.36892L1.02734 4.38989C1.89688 2.57555 3.40244 1.18772 5.22617 0.519386Z" fill="#E33629"/>
<path d="M0.38359 6.35018C0.514067 5.66926 0.730847 5.00986 1.02812 4.38965L3.45742 6.37361C3.13971 7.35833 3.13971 8.42585 3.45742 9.41058C2.64804 10.0682 1.83828 10.7291 1.02812 11.3933C0.284158 9.83513 0.0572615 8.05979 0.38359 6.35018Z" fill="#F8BD00"/>
<path d="M7.64896 6.43066H14.624C14.8624 7.80789 14.7979 9.2243 14.4353 10.5712C14.1016 11.8098 13.4533 12.9292 12.5603 13.8092C11.7763 13.1655 10.9888 12.5268 10.2048 11.8832C10.5935 11.6073 10.9253 11.2517 11.1802 10.8377C11.4351 10.4237 11.608 9.95979 11.6884 9.4738H7.64896C7.64779 8.46024 7.64896 7.44545 7.64896 6.43066Z" fill="#587DBD"/>
<path d="M1.02344 11.3929C1.83359 10.7353 2.64336 10.0744 3.45273 9.41016C3.76587 10.3771 4.36141 11.2152 5.1543 11.8047C5.64877 12.1726 6.21074 12.4279 6.8043 12.5544C7.38913 12.6689 7.989 12.6689 8.57383 12.5544C9.15699 12.4507 9.71305 12.2197 10.2063 11.8762C10.9902 12.5199 11.7777 13.1586 12.5617 13.8022C11.7038 14.6231 10.6579 15.1954 9.52656 15.4631C8.27782 15.772 6.97647 15.7572 5.73438 15.42C4.75199 15.144 3.83439 14.6575 3.03906 13.9909C2.19734 13.2876 1.50981 12.4014 1.02344 11.3929Z" fill="#319F43"/>
</g>
<defs>
<clipPath id="clip0_4937_791">
<rect width="15" height="15.7829" fill="white"/>
</clipPath>
</defs>
</svg>
