<svg width="30" height="32" viewBox="0 0 30 32" fill="none" xmlns="http://www.w3.org/2000/svg">
<path d="M29 25.1589L16.2635 30.7358C15.4591 31.0881 14.5409 31.0881 13.7365 30.7358L1 25.1589M29 17.4962L16.2635 23.0731C15.4591 23.4253 14.5409 23.4253 13.7365 23.0731L1 17.4962M2.22711 9.67168L13.6087 15.2783C14.4845 15.7097 15.5155 15.7097 16.3913 15.2783L27.7729 9.67169C28.9194 9.10691 28.9194 7.49497 27.7729 6.93019L16.3913 1.32359C15.5155 0.892137 14.4845 0.892136 13.6087 1.32359L2.22711 6.93018C1.08059 7.49496 1.08059 9.1069 2.22711 9.67168Z" stroke="black" stroke-width="2" stroke-linecap="round" stroke-linejoin="round"/>
</svg>
