<svg width="49" height="54" viewBox="0 0 49 54" fill="none" xmlns="http://www.w3.org/2000/svg">
<path fill-rule="evenodd" clip-rule="evenodd" d="M5.44444 0H43.5556C46.5624 0 49 2.44124 49 5.45267V46.7685C49 50.545 45.2593 53.178 41.7114 51.8988L37.4599 50.366C36.1315 49.887 34.6692 49.9436 33.3816 50.5239L26.7342 53.5197C25.3134 54.1601 23.6866 54.1601 22.2658 53.5197L15.6184 50.5239C14.3308 49.9436 12.8685 49.887 11.5401 50.366L7.28858 51.8988C3.74065 53.178 0 50.545 0 46.7685V5.45267C0 2.44124 2.43756 0 5.44444 0ZM13.6111 11.5869C12.4835 11.5869 11.5694 12.5024 11.5694 13.6317C11.5694 14.7609 12.4835 15.6764 13.6111 15.6764H24.5C25.6276 15.6764 26.5417 14.7609 26.5417 13.6317C26.5417 12.5024 25.6276 11.5869 24.5 11.5869H13.6111ZM13.6111 22.4922C12.4835 22.4922 11.5694 23.4077 11.5694 24.537C11.5694 25.6663 12.4835 26.5817 13.6111 26.5817H35.3889C36.5165 26.5817 37.4306 25.6663 37.4306 24.537C37.4306 23.4077 36.5165 22.4922 35.3889 22.4922H13.6111ZM13.6111 33.3976C12.4835 33.3976 11.5694 34.313 11.5694 35.4423C11.5694 36.5716 12.4835 37.4871 13.6111 37.4871H35.3889C36.5165 37.4871 37.4306 36.5716 37.4306 35.4423C37.4306 34.313 36.5165 33.3976 35.3889 33.3976H13.6111Z" fill="#FF7F49"/>
</svg>
