<svg width="32" height="36" viewBox="0 0 32 36" fill="none" xmlns="http://www.w3.org/2000/svg">
<path d="M30 19.6V22.8C30 25.451 27.9107 27.6 25.3333 27.6C22.756 27.6 20.6667 25.451 20.6667 22.8V19.6C20.6667 16.949 22.756 14.8 25.3333 14.8C27.9107 14.8 30 16.949 30 19.6ZM30 19.6V16.4C30 8.4471 23.732 2 16 2C8.26801 2 2 8.4471 2 16.4V19.6M2 19.6V22.8C2 25.451 4.08934 27.6 6.66667 27.6C9.244 27.6 11.3333 25.451 11.3333 22.8V19.6C11.3333 16.949 9.244 14.8 6.66667 14.8C4.08934 14.8 2 16.949 2 19.6ZM30 21.2V24.4C30 29.7019 25.8213 34 20.6667 34H16" stroke="black" stroke-width="3" stroke-linecap="round" stroke-linejoin="round"/>
</svg>
