<svg width="55" height="52" viewBox="0 0 55 52" fill="none" xmlns="http://www.w3.org/2000/svg">
<path fill-rule="evenodd" clip-rule="evenodd" d="M0 4C0 1.79086 1.79086 0 4 0H51C53.2091 0 55 1.79086 55 4V12.25H0V4ZM0 13.75H55V48C55 50.2091 53.2091 52 51 52H4C1.79086 52 0 50.2091 0 48V13.75ZM12.4235 24.0752C11.7601 23.7616 10.9961 24.2454 10.9961 24.9792V37.4216C10.9961 38.1553 11.7601 38.6392 12.4235 38.3256L25.5836 32.1045C26.3471 31.7435 26.3471 30.6572 25.5836 30.2963L12.4235 24.0752ZM32.2539 26C32.2539 25.5858 32.5897 25.25 33.0039 25.25H44.0039C44.4181 25.25 44.7539 25.5858 44.7539 26C44.7539 26.4142 44.4181 26.75 44.0039 26.75H33.0039C32.5897 26.75 32.2539 26.4142 32.2539 26ZM33.0039 35.6504C32.5897 35.6504 32.2539 35.9862 32.2539 36.4004C32.2539 36.8146 32.5897 37.1504 33.0039 37.1504H44.0039C44.4181 37.1504 44.7539 36.8146 44.7539 36.4004C44.7539 35.9862 44.4181 35.6504 44.0039 35.6504H33.0039Z" fill="white"/>
</svg>
