<svg width="54" height="54" viewBox="0 0 54 54" fill="none" xmlns="http://www.w3.org/2000/svg">
<path fill-rule="evenodd" clip-rule="evenodd" d="M24.2159 0.75H29.7841C32.8593 0.75 35.3523 3.10051 35.3523 6C35.3523 9.31805 38.9024 11.4276 41.8167 9.84118L42.1127 9.68007C44.7759 8.23032 48.1814 9.09067 49.719 11.6017L52.5031 16.1483C54.0407 18.6594 53.1282 21.8702 50.465 23.32C47.5494 24.9071 47.5494 29.0929 50.465 30.68C53.1282 32.1298 54.0407 35.3406 52.5031 37.8517L49.719 42.3983C48.1814 44.9093 44.7759 45.7697 42.1127 44.3199L41.8167 44.1588C38.9025 42.5724 35.3523 44.6819 35.3523 48C35.3523 50.8995 32.8593 53.25 29.7841 53.25H24.2159C21.1407 53.25 18.6477 50.8995 18.6477 48C18.6477 44.682 15.0976 42.5725 12.1833 44.1588L11.8873 44.32C9.2241 45.7697 5.81865 44.9094 4.28103 42.3983L1.49693 37.8517C-0.0406892 35.3407 0.871801 32.1298 3.53503 30.6801C6.45065 29.0929 6.45066 24.9071 3.53504 23.3199C0.871805 21.8702 -0.0406856 18.6593 1.49693 16.1483L4.28103 11.6017C5.81865 9.09063 9.22411 8.23028 11.8873 9.68003L12.1833 9.84116C15.0976 11.4275 18.6477 9.31804 18.6477 6C18.6477 3.10051 21.1407 0.75 24.2159 0.75ZM27 35.75C31.8325 35.75 35.75 31.8325 35.75 27C35.75 22.1675 31.8325 18.25 27 18.25C22.1675 18.25 18.25 22.1675 18.25 27C18.25 31.8325 22.1675 35.75 27 35.75Z" fill="white"/>
</svg>
