<svg width="32" height="32" viewBox="0 0 32 32" fill="none" xmlns="http://www.w3.org/2000/svg">
<path d="M26.5 1H29.5C30.3284 1 31 1.67157 31 2.5V5.5M29.5 2.5C17.5877 12.087 11.4132 14.6694 1 16M25 13V28C25 29.6569 26.3431 31 28 31C29.6569 31 31 29.6569 31 28V13C31 11.3431 29.6569 10 28 10C26.3431 10 25 11.3431 25 13ZM1 25L1 28C1 29.6569 2.34315 31 4 31C5.65685 31 7 29.6569 7 28L7 25C7 23.3431 5.65685 22 4 22C2.34315 22 1 23.3431 1 25ZM13 19V28C13 29.6569 14.3431 31 16 31C17.6569 31 19 29.6569 19 28V19C19 17.3431 17.6569 16 16 16C14.3431 16 13 17.3431 13 19Z" stroke="black" stroke-width="2" stroke-linecap="round" stroke-linejoin="round"/>
</svg>
