<svg width="32" height="40" viewBox="0 0 32 40" fill="none" xmlns="http://www.w3.org/2000/svg">
<path fill-rule="evenodd" clip-rule="evenodd" d="M26 2V7.84143C23.0954 6.04005 19.6692 5 16 5C12.3308 5 8.9046 6.04005 6 7.84143V2C6 0.895431 6.89543 0 8 0H24C25.1046 0 26 0.895431 26 2ZM32 24C32 32.8366 24.8366 40 16 40C7.16344 40 0 32.8366 0 24C0 15.1634 7.16344 8 16 8C24.8366 8 32 15.1634 32 24ZM17.5737 17.0171L18.6863 19.3609C18.9419 19.8995 19.4361 20.2727 20.0077 20.3591L22.4955 20.735C23.9349 20.9524 24.5097 22.7916 23.4681 23.8473L21.6679 25.6717C21.2543 26.0909 21.0656 26.6948 21.1632 27.2867L21.5882 29.8628C21.8341 31.3534 20.3293 32.4901 19.0418 31.7864L16.8167 30.5701C16.3054 30.2906 15.6946 30.2906 15.1833 30.5701L12.9582 31.7864C11.6707 32.4901 10.1659 31.3534 10.4118 29.8628L10.8368 27.2867C10.9344 26.6948 10.7457 26.0909 10.3321 25.6717L8.5319 23.8473C7.49029 22.7916 8.06506 20.9524 9.50453 20.735L11.9923 20.3591C12.5639 20.2727 13.0581 19.8995 13.3137 19.3609L14.4262 17.0171C15.07 15.661 16.93 15.661 17.5737 17.0171Z" fill="white"/>
</svg>
