<svg width="76" height="83" viewBox="0 0 76 83" fill="none" xmlns="http://www.w3.org/2000/svg">
<path fill-rule="evenodd" clip-rule="evenodd" d="M12.8889 5H68.1111C72.468 5 76 8.52624 76 12.8761V72.5544C76 78.0094 70.5799 81.8126 65.439 79.9649L59.2787 77.7508C57.3538 77.059 55.2349 77.1408 53.3692 77.979L43.7373 82.3063C41.6785 83.2312 39.3215 83.2312 37.2627 82.3063L27.6308 77.979C25.7651 77.1408 23.6462 77.059 21.7213 77.7508L15.561 79.9649C10.4201 81.8126 5 78.0094 5 72.5544V12.8761C5 8.52624 8.53198 5 12.8889 5ZM24.7222 21.7367C23.0884 21.7367 21.7639 23.059 21.7639 24.6902C21.7639 26.3214 23.0884 27.6437 24.7222 27.6437H40.5C42.1338 27.6437 43.4583 26.3214 43.4583 24.6902C43.4583 23.059 42.1338 21.7367 40.5 21.7367H24.7222ZM24.7222 37.4888C23.0884 37.4888 21.7639 38.8111 21.7639 40.4423C21.7639 42.0735 23.0884 43.3959 24.7222 43.3959H56.2778C57.9116 43.3959 59.2361 42.0735 59.2361 40.4423C59.2361 38.8111 57.9116 37.4888 56.2778 37.4888H24.7222ZM24.7222 53.2409C23.0884 53.2409 21.7639 54.5633 21.7639 56.1945C21.7639 57.8257 23.0884 59.148 24.7222 59.148H56.2778C57.9116 59.148 59.2361 57.8257 59.2361 56.1945C59.2361 54.5633 57.9116 53.2409 56.2778 53.2409H24.7222Z" fill="black"/>
<path fill-rule="evenodd" clip-rule="evenodd" d="M7.88889 0H63.1111C67.468 0 71 3.52624 71 7.87607V67.5544C71 73.0094 65.5799 76.8126 60.439 74.9649L54.2787 72.7508C52.3538 72.059 50.2349 72.1408 48.3692 72.979L38.7373 77.3063C36.6785 78.2312 34.3215 78.2312 32.2627 77.3063L22.6308 72.979C20.7651 72.1408 18.6462 72.059 16.7213 72.7508L10.561 74.9649C5.42013 76.8126 0 73.0094 0 67.5544V7.87607C0 3.52624 3.53198 0 7.88889 0ZM19.7222 16.7367C18.0884 16.7367 16.7639 18.059 16.7639 19.6902C16.7639 21.3214 18.0884 22.6437 19.7222 22.6437H35.5C37.1338 22.6437 38.4583 21.3214 38.4583 19.6902C38.4583 18.059 37.1338 16.7367 35.5 16.7367H19.7222ZM19.7222 32.4888C18.0884 32.4888 16.7639 33.8111 16.7639 35.4423C16.7639 37.0735 18.0884 38.3959 19.7222 38.3959H51.2778C52.9116 38.3959 54.2361 37.0735 54.2361 35.4423C54.2361 33.8111 52.9116 32.4888 51.2778 32.4888H19.7222ZM19.7222 48.2409C18.0884 48.2409 16.7639 49.5633 16.7639 51.1945C16.7639 52.8257 18.0884 54.148 19.7222 54.148H51.2778C52.9116 54.148 54.2361 52.8257 54.2361 51.1945C54.2361 49.5633 52.9116 48.2409 51.2778 48.2409H19.7222Z" fill="#A095FF"/>
</svg>
