<svg width="56" height="55" viewBox="0 0 56 55" fill="none" xmlns="http://www.w3.org/2000/svg">
<path fill-rule="evenodd" clip-rule="evenodd" d="M46.2324 0C45.1535 0 44.2789 0.8746 44.2789 1.95347C44.2789 3.03235 45.1535 3.90695 46.2324 3.90695H49.1302C39.3772 11.6848 31.9558 16.6103 24.8996 19.883C17.6133 23.2625 10.6235 24.9226 1.70608 26.0621C0.635912 26.1988 -0.120779 27.1772 0.0159676 28.2474C0.152714 29.3176 1.13111 30.0742 2.20129 29.9375C11.3655 28.7665 18.7774 27.0293 26.5435 23.4273C34.1369 19.9054 41.9791 14.6422 52.0928 6.54052V9.76737C52.0928 10.8462 52.9674 11.7208 54.0463 11.7208C55.1252 11.7208 55.9998 10.8462 55.9998 9.76737V4.5581C55.9998 2.04073 53.959 0 51.4417 0H46.2324ZM54.0469 21.5811C54.0469 19.3719 52.256 17.5811 50.0469 17.5811H47.6284C45.4192 17.5811 43.6284 19.3719 43.6284 21.5811V50.0459C43.6284 52.255 45.4192 54.0459 47.6284 54.0459H50.0469C52.256 54.0459 54.0469 52.255 54.0469 50.0459V21.5811ZM12.3711 42.418C12.3711 40.2088 10.5802 38.418 8.37109 38.418H5.95257C3.74343 38.418 1.95257 40.2088 1.95257 42.418L1.95257 50.0458C1.95257 52.2549 3.74343 54.0458 5.95257 54.0458H8.37109C10.5802 54.0458 12.3711 52.2549 12.3711 50.0458L12.3711 42.418ZM29.2109 28C31.4201 28 33.2109 29.7909 33.2109 32V50.0463C33.2109 52.2555 31.4201 54.0463 29.2109 54.0463H26.7924C24.5833 54.0463 22.7924 52.2554 22.7924 50.0463L22.7924 32C22.7924 29.7909 24.5833 28 26.7924 28H29.2109Z" fill="#FF7F49"/>
</svg>
