<svg width="20" height="21" viewBox="0 0 20 21" fill="none" xmlns="http://www.w3.org/2000/svg">
<path fill-rule="evenodd" clip-rule="evenodd" d="M9.50244 1C6.65158 1 4.32031 3.33401 4.32031 6.18822C4.32033 9.04243 6.6516 11.3764 9.50244 11.3764C12.3533 11.3764 14.6761 9.04243 14.6761 6.18822C14.6761 3.33401 12.3533 1 9.50244 1ZM9.50609 2.72852C11.4237 2.72852 12.953 4.26804 12.953 6.18789C12.953 8.10777 11.4237 9.64558 9.50609 9.64558C7.58849 9.64558 6.05079 8.10777 6.05078 6.18789C6.05078 4.26804 7.58848 2.72852 9.50609 2.72852ZM9.4352 13.1055C9.4591 13.1055 9.48211 13.1055 9.50422 13.1055C9.52661 13.1055 9.54994 13.1055 9.57416 13.1055C10.484 13.105 12.6674 13.1037 14.7369 13.7944C15.7993 14.1489 16.8513 14.6933 17.661 15.5688C18.4708 16.4443 19 17.6661 19 19.1548C18.9896 19.6247 18.6061 20.0002 18.1366 20.0002C17.6671 20.0002 17.2836 19.6247 17.2732 19.1548C17.2732 18.0502 16.9323 17.3254 16.3929 16.7422C15.8536 16.159 15.0743 15.7274 14.1939 15.4337C12.4333 14.847 10.3676 14.8344 9.50422 14.8344C8.6408 14.8344 6.57346 14.8462 4.81282 15.4337C3.9325 15.7275 3.14645 16.159 2.60708 16.7422C2.06772 17.3254 1.72681 18.0502 1.72681 19.1548C1.7164 19.6247 1.33291 20.0002 0.863406 20.0002C0.393906 20.0002 0.0104116 19.6247 0 19.1548C-3.65219e-06 17.6661 0.529248 16.4443 1.33895 15.5688C2.14866 14.6933 3.20241 14.1489 4.26476 13.7944C6.33506 13.1037 8.52563 13.105 9.4352 13.1055Z" fill="black"/>
<path d="M4.32031 6.18822L4.07031 6.18822V6.18822L4.32031 6.18822ZM14.6761 6.18822L14.9261 6.18822V6.18822L14.6761 6.18822ZM12.953 6.18789L13.203 6.18789V6.18789L12.953 6.18789ZM6.05078 6.18789L5.80078 6.18789V6.18789L6.05078 6.18789ZM9.4352 13.1055L9.43506 13.3555H9.43507L9.4352 13.1055ZM9.57416 13.1055L9.57402 12.8555H9.57402L9.57416 13.1055ZM14.7369 13.7944L14.6578 14.0315L14.6578 14.0315L14.7369 13.7944ZM17.661 15.5688L17.8446 15.399L17.661 15.5688ZM19 19.1548L19.25 19.1603V19.1548H19ZM17.2732 19.1548H17.0231L17.0232 19.1603L17.2732 19.1548ZM16.3929 16.7422L16.5765 16.5724H16.5765L16.3929 16.7422ZM14.1939 15.4337L14.2731 15.1966L14.273 15.1965L14.1939 15.4337ZM4.81282 15.4337L4.73368 15.1966L4.81282 15.4337ZM2.60708 16.7422L2.42355 16.5724L2.42354 16.5724L2.60708 16.7422ZM1.72681 19.1548L1.97681 19.1603V19.1548H1.72681ZM0 19.1548H-0.250061L-0.249939 19.1603L0 19.1548ZM1.33895 15.5688L1.15541 15.399H1.15541L1.33895 15.5688ZM4.26476 13.7944L4.18565 13.5572L4.18562 13.5572L4.26476 13.7944ZM4.57031 6.18822C4.57031 3.4718 6.78993 1.25 9.50244 1.25V0.75C6.51323 0.75 4.0703 3.19621 4.07031 6.18822L4.57031 6.18822ZM9.50244 11.1264C6.78995 11.1264 4.57033 8.90463 4.57031 6.18822L4.07031 6.18822C4.07033 9.18022 6.51325 11.6264 9.50244 11.6264V11.1264ZM14.4261 6.18822C14.4261 8.90516 12.2144 11.1264 9.50244 11.1264V11.6264C12.4922 11.6264 14.9261 9.17969 14.9261 6.18822L14.4261 6.18822ZM9.50244 1.25C12.2144 1.25 14.4261 3.47127 14.4261 6.18822L14.9261 6.18822C14.9261 3.19674 12.4922 0.75 9.50244 0.75V1.25ZM13.203 6.18789C13.203 4.13105 11.5629 2.47852 9.50609 2.47852V2.97852C11.2846 2.97852 12.703 4.40504 12.703 6.18789L13.203 6.18789ZM9.50609 9.89558C11.5627 9.89558 13.203 8.24493 13.203 6.18789L12.703 6.18789C12.703 7.97062 11.2847 9.39558 9.50609 9.39558V9.89558ZM5.80078 6.18789C5.80079 8.24573 7.4503 9.89558 9.50609 9.89558V9.39558C7.72668 9.39558 6.30079 7.96982 6.30078 6.18789L5.80078 6.18789ZM9.50609 2.47852C7.45013 2.47852 5.80078 4.13025 5.80078 6.18789L6.30078 6.18789C6.30078 4.40583 7.72683 2.97852 9.50609 2.97852V2.47852ZM9.50422 12.8555C9.4822 12.8555 9.45926 12.8555 9.43534 12.8555L9.43507 13.3555C9.45894 13.3555 9.48203 13.3555 9.50422 13.3555V12.8555ZM9.57402 12.8555C9.54978 12.8555 9.52653 12.8555 9.50422 12.8555V13.3555C9.5267 13.3555 9.55009 13.3555 9.57431 13.3555L9.57402 12.8555ZM14.8161 13.5572C12.7038 12.8523 10.4833 12.855 9.57402 12.8555L9.57431 13.3555C10.4847 13.355 12.6309 13.3551 14.6578 14.0315L14.8161 13.5572ZM17.8446 15.399C16.9967 14.4822 15.9022 13.9197 14.8161 13.5572L14.6578 14.0315C15.6963 14.3781 16.706 14.9043 17.4775 15.7385L17.8446 15.399ZM19.25 19.1548C19.25 17.6041 18.6976 16.3214 17.8446 15.399L17.4775 15.7385C18.2439 16.5672 18.75 17.7281 18.75 19.1548H19.25ZM18.1366 20.2502C18.7423 20.2502 19.2365 19.7659 19.2499 19.1603L18.7501 19.1493C18.7427 19.4836 18.4699 19.7502 18.1366 19.7502V20.2502ZM17.0232 19.1603C17.0367 19.7659 17.5309 20.2502 18.1366 20.2502V19.7502C17.8033 19.7502 17.5305 19.4836 17.5231 19.1493L17.0232 19.1603ZM16.2094 16.9119C16.7055 17.4484 17.0232 18.1125 17.0232 19.1548H17.5232C17.5232 17.988 17.159 17.2024 16.5765 16.5724L16.2094 16.9119ZM14.1148 15.6709C14.971 15.9565 15.7081 16.3699 16.2094 16.9119L16.5765 16.5724C15.999 15.9481 15.1775 15.4983 14.2731 15.1966L14.1148 15.6709ZM9.50422 15.0844C10.3697 15.0844 12.3974 15.0985 14.1149 15.6709L14.273 15.1965C12.4692 14.5954 10.3655 14.5844 9.50422 14.5844V15.0844ZM4.89195 15.6709C6.60935 15.0977 8.63857 15.0844 9.50422 15.0844V14.5844C8.64303 14.5844 6.53757 14.5946 4.73368 15.1966L4.89195 15.6709ZM2.79062 16.9119C3.29154 16.3703 4.03501 15.9568 4.89195 15.6709L4.73368 15.1966C3.82998 15.4982 3.00136 15.9477 2.42355 16.5724L2.79062 16.9119ZM1.97681 19.1548C1.97681 18.1125 2.29447 17.4484 2.79062 16.9119L2.42354 16.5724C1.84097 17.2024 1.47681 17.988 1.47681 19.1548H1.97681ZM0.863406 20.2502C1.46909 20.2502 1.96334 19.7659 1.97675 19.1603L1.47687 19.1493C1.46947 19.4836 1.19673 19.7502 0.863406 19.7502V20.2502ZM-0.249939 19.1603C-0.236523 19.7659 0.257724 20.2502 0.863406 20.2502V19.7502C0.530087 19.7502 0.257346 19.4836 0.249939 19.1493L-0.249939 19.1603ZM1.15541 15.399C0.30236 16.3214 -0.250004 17.6041 -0.25 19.1548H0.25C0.249996 17.7281 0.756135 16.5672 1.52249 15.7385L1.15541 15.399ZM4.18562 13.5572C3.09958 13.9196 2.00341 14.4821 1.15541 15.399L1.52249 15.7385C2.29391 14.9044 3.30524 14.3781 4.34389 14.0315L4.18562 13.5572ZM9.43535 12.8555C8.52637 12.855 6.29863 12.8523 4.18565 13.5572L4.34387 14.0315C6.37148 13.3551 8.52489 13.355 9.43506 13.3555L9.43535 12.8555Z" fill="black"/>
</svg>
