<svg width="50" height="34" viewBox="0 0 50 34" fill="none" xmlns="http://www.w3.org/2000/svg">
<path d="M32 33.3333L48 33.3333C49.1046 33.3333 50 32.4379 50 31.3333L50 15.3333C50 14.2288 49.1046 13.3333 48 13.3333L40 13.3333L45.2195 2.89444C45.8844 1.56464 44.9174 1.18884e-05 43.4306 1.20184e-05L37.9027 1.25017e-05C37.1452 1.25679e-05 36.4527 0.428018 36.1139 1.10558L30.2111 12.9111C30.0723 13.1888 30 13.495 30 13.8055L30 31.3333C30 32.4379 30.8954 33.3333 32 33.3333Z" fill="#FF7F49"/>
<path d="M2 33.3333L18 33.3333C19.1046 33.3333 20 32.4379 20 31.3333L20 15.3333C20 14.2288 19.1046 13.3333 18 13.3333L10 13.3333L15.2194 2.89444C15.8844 1.56464 14.9174 1.45111e-05 13.4306 1.46411e-05L7.90273 1.51244e-05C7.14518 1.51906e-05 6.45266 0.42802 6.11388 1.10559L0.211142 12.9111C0.0722868 13.1888 -1.73432e-06 13.495 -1.70718e-06 13.8055L-1.74846e-07 31.3333C-7.8281e-08 32.4379 0.895432 33.3333 2 33.3333Z" fill="#FF7F49"/>
</svg>
