<svg width="83" height="83" viewBox="0 0 83 83" fill="none" xmlns="http://www.w3.org/2000/svg">
<path fill-rule="evenodd" clip-rule="evenodd" d="M45.5232 4.00141C65.7601 5.0098 81.9893 21.2391 82.9976 41.4762C83.0526 42.5794 82.1519 43.4757 81.0473 43.4757H45.5236C44.419 43.4757 43.5236 42.5803 43.5236 41.4757V5.95171C43.5236 4.84714 44.42 3.94644 45.5232 4.00141ZM4 47.4288C4 28.4467 18.8681 12.9373 37.5938 11.9112V35.5726C37.5938 43.2126 43.7871 49.406 51.4271 49.406H75.0887C74.0628 68.132 58.5534 83.0004 39.5714 83.0004C19.9258 83.0004 4 67.0745 4 47.4288Z" fill="black"/>
<path fill-rule="evenodd" clip-rule="evenodd" d="M41.5232 0.00141317C61.7601 1.0098 77.9893 17.2391 78.9976 37.4762C79.0526 38.5794 78.1519 39.4757 77.0473 39.4757H41.5236C40.419 39.4757 39.5236 38.5803 39.5236 37.4757V1.95171C39.5236 0.847138 40.42 -0.0535583 41.5232 0.00141317ZM0 43.4288C0 24.4467 14.8681 8.93734 33.5938 7.91121V31.5726C33.5938 39.2126 39.7871 45.406 47.4271 45.406H71.0887C70.0628 64.132 54.5534 79.0004 35.5714 79.0004C15.9258 79.0004 0 63.0745 0 43.4288Z" fill="#FF7F49"/>
</svg>
