<svg width="32" height="30" viewBox="0 0 32 30" fill="none" xmlns="http://www.w3.org/2000/svg">
<path d="M25.4362 7.8178C25.5154 7.28978 25.5518 6.75634 25.5453 6.22247C23.9562 4.57106 22.0503 3.25732 19.9414 2.35997C17.8326 1.46262 15.5643 1 13.2726 1C10.9809 1 8.7127 1.46262 6.6039 2.35997C4.49511 3.25732 2.58906 4.57106 1 6.22247C1 25.395 13.2726 28.2722 13.2726 28.2722C14.1803 27.8881 15.0558 27.4321 15.8908 26.9086" stroke="black" stroke-width="2" stroke-linecap="round" stroke-linejoin="round"/>
<path d="M30.9995 15.9995H17.3633" stroke="black" stroke-width="2" stroke-linecap="round" stroke-linejoin="round"/>
<path d="M28.2723 11.8403H20.0905C18.5843 11.8403 17.3633 13.0615 17.3633 14.5676V21.3857C17.3633 22.892 18.5843 24.113 20.0905 24.113H28.2723C29.7786 24.113 30.9995 22.892 30.9995 21.3857V14.5676C30.9995 13.0615 29.7786 11.8403 28.2723 11.8403Z" stroke="black" stroke-width="2" stroke-linecap="round" stroke-linejoin="round"/>
</svg>
