<svg width="32" height="32" viewBox="0 0 32 32" fill="none" xmlns="http://www.w3.org/2000/svg">
<path d="M2 1C2 0.447715 1.55228 0 1 0C0.447715 0 0 0.447715 0 1H2ZM31 32C31.5523 32 32 31.5523 32 31C32 30.4477 31.5523 30 31 30V32ZM21.25 10.5C20.6977 10.5 20.25 10.9477 20.25 11.5C20.25 12.0523 20.6977 12.5 21.25 12.5V10.5ZM25.4146 12.3292L24.5202 12.7764V12.7764L25.4146 12.3292ZM25.6056 14.9472C25.8526 15.4412 26.4532 15.6414 26.9472 15.3944C27.4412 15.1474 27.6414 14.5468 27.3944 14.0528L25.6056 14.9472ZM25.0863 12.7983L25.6346 11.9619L23.9619 10.8654L23.4137 11.7017L25.0863 12.7983ZM20.1466 18.5093L19.3103 17.961L20.1466 18.5093ZM17.6089 18.4636L16.7535 18.9815L17.6089 18.4636ZM14.7467 13.7351L13.8912 14.2529L14.7467 13.7351ZM12.1457 13.7953L11.2671 13.3176L12.1457 13.7953ZM7.62148 20.0223C7.35765 20.5075 7.53711 21.1147 8.0223 21.3785C8.5075 21.6423 9.1147 21.4629 9.37852 20.9777L7.62148 20.0223ZM0 1V25H2V1H0ZM7 32H31V30H7V32ZM0 25C0 28.866 3.13401 32 7 32V30C4.23858 30 2 27.7614 2 25H0ZM21.25 12.5H24.073V10.5H21.25V12.5ZM24.5202 12.7764L25.6056 14.9472L27.3944 14.0528L26.309 11.882L24.5202 12.7764ZM24.073 12.5C24.2623 12.5 24.4355 12.607 24.5202 12.7764L26.309 11.882C25.8855 11.035 25.0199 10.5 24.073 10.5V12.5ZM23.4137 11.7017L19.3103 17.961L20.9829 19.0575L25.0863 12.7983L23.4137 11.7017ZM18.4644 17.9458L15.6022 13.2173L13.8912 14.2529L16.7535 18.9815L18.4644 17.9458ZM11.2671 13.3176L7.62148 20.0223L9.37852 20.9777L13.0242 14.273L11.2671 13.3176ZM15.6022 13.2173C14.6028 11.5663 12.189 11.6222 11.2671 13.3176L13.0242 14.273C13.2086 13.9339 13.6913 13.9227 13.8912 14.2529L15.6022 13.2173ZM19.3103 17.961C19.1086 18.2687 18.6549 18.2605 18.4644 17.9458L16.7535 18.9815C17.706 20.5551 19.9745 20.5959 20.9829 19.0575L19.3103 17.961Z" fill="black"/>
</svg>
