<svg width="32" height="32" viewBox="0 0 32 32" fill="none" xmlns="http://www.w3.org/2000/svg">
<path d="M31 16C31 24.2843 24.2843 31 16 31M31 16C31 7.71573 24.2843 1 16 1M31 16C31 13.5147 24.2843 11.5 16 11.5C7.71573 11.5 1 13.5147 1 16M31 16C31 18.4853 24.2843 20.5 16 20.5C7.71573 20.5 1 18.4853 1 16M16 31C7.71573 31 1 24.2843 1 16M16 31C19.3137 31 22 24.2843 22 16C22 7.71573 19.3137 1 16 1M16 31C12.6863 31 10 24.2843 10 16C10 7.71573 12.6863 1 16 1M1 16C1 7.71573 7.71573 1 16 1" stroke="black" stroke-width="2"/>
</svg>
