<svg width="88" height="82" viewBox="0 0 88 82" fill="none" xmlns="http://www.w3.org/2000/svg">
<path fill-rule="evenodd" clip-rule="evenodd" d="M48.5 82C70.3152 82 88 64.3152 88 42.5C88 20.6848 70.3152 3 48.5 3C26.6848 3 9 20.6848 9 42.5C9 64.3152 26.6848 82 48.5 82ZM58.3085 17.7075C57.7048 16.1868 55.9826 15.4435 54.4619 16.0473C52.9412 16.6511 52.198 18.3733 52.8017 19.8939L53.488 21.6225C51.8812 21.2834 50.2122 21.1049 48.5016 21.1049C36.1536 21.1049 25.7891 30.4949 25.7891 42.5007C25.7891 44.4171 26.0572 46.2784 26.5611 48.0508C27.0084 49.6246 28.6469 50.5377 30.2207 50.0903C31.7945 49.6429 32.7076 48.0044 32.2602 46.4306C31.9041 45.178 31.7141 43.8617 31.7141 42.5007C31.7141 34.1456 39.0343 27.0299 48.5016 27.0299C51.7169 27.0299 54.7047 27.861 57.2408 29.2901C58.3345 29.9064 59.698 29.7664 60.6437 28.9407C61.5894 28.115 61.9119 26.7828 61.4486 25.6159L58.3085 17.7075ZM70.4421 36.9506C69.9947 35.3768 68.3562 34.4637 66.7824 34.9111C65.2086 35.3585 64.2955 36.997 64.7429 38.5708C65.099 39.8234 65.2891 41.1397 65.2891 42.5007C65.2891 50.8558 57.9689 57.9715 48.5016 57.9715C45.2862 57.9715 42.2983 57.1404 39.7623 55.7113C38.6685 55.0949 37.305 55.2349 36.3593 56.0606C35.4137 56.8864 35.0911 58.2186 35.5545 59.3854L38.6946 67.294C39.2984 68.8146 41.0206 69.5579 42.5412 68.9541C44.0619 68.3503 44.8052 66.6281 44.2014 65.1074L43.5151 63.3789C45.1219 63.718 46.791 63.8965 48.5016 63.8965C60.8495 63.8965 71.2141 54.5065 71.2141 42.5007C71.2141 40.5843 70.9459 38.7229 70.4421 36.9506Z" fill="black"/>
<path fill-rule="evenodd" clip-rule="evenodd" d="M39.5 79C61.3152 79 79 61.3152 79 39.5C79 17.6848 61.3152 0 39.5 0C17.6848 0 0 17.6848 0 39.5C0 61.3152 17.6848 79 39.5 79ZM49.3085 14.7075C48.7048 13.1868 46.9826 12.4435 45.4619 13.0473C43.9412 13.6511 43.198 15.3733 43.8017 16.8939L44.488 18.6225C42.8812 18.2834 41.2122 18.1049 39.5016 18.1049C27.1536 18.1049 16.7891 27.4949 16.7891 39.5007C16.7891 41.4171 17.0572 43.2784 17.5611 45.0508C18.0084 46.6246 19.6469 47.5377 21.2207 47.0903C22.7945 46.6429 23.7076 45.0044 23.2602 43.4306C22.9041 42.178 22.7141 40.8617 22.7141 39.5007C22.7141 31.1456 30.0343 24.0299 39.5016 24.0299C42.7169 24.0299 45.7047 24.861 48.2408 26.2901C49.3345 26.9064 50.698 26.7664 51.6437 25.9407C52.5894 25.115 52.9119 23.7828 52.4486 22.6159L49.3085 14.7075ZM61.4421 33.9506C60.9947 32.3768 59.3562 31.4637 57.7824 31.9111C56.2086 32.3585 55.2955 33.997 55.7429 35.5708C56.099 36.8234 56.2891 38.1397 56.2891 39.5007C56.2891 47.8558 48.9689 54.9715 39.5016 54.9715C36.2862 54.9715 33.2983 54.1404 30.7623 52.7113C29.6685 52.0949 28.305 52.2349 27.3593 53.0606C26.4137 53.8864 26.0911 55.2186 26.5545 56.3854L29.6946 64.294C30.2984 65.8146 32.0206 66.5579 33.5412 65.9541C35.0619 65.3503 35.8052 63.6281 35.2014 62.1074L34.5151 60.3789C36.1219 60.718 37.791 60.8965 39.5016 60.8965C51.8495 60.8965 62.2141 51.5065 62.2141 39.5007C62.2141 37.5843 61.9459 35.7229 61.4421 33.9506Z" fill="#FFE149"/>
</svg>
