<svg width="85" height="84" viewBox="0 0 85 84" fill="none" xmlns="http://www.w3.org/2000/svg">
<path fill-rule="evenodd" clip-rule="evenodd" d="M47.4078 5.71666C46.2866 4.76111 44.6374 4.76112 43.5161 5.71666L33.8317 13.9697C33.3512 14.3791 32.7538 14.6266 32.1245 14.6768L19.4408 15.689C17.9723 15.8062 16.8062 16.9723 16.689 18.4408L15.6768 31.1245C15.6266 31.7538 15.3791 32.3512 14.9697 32.8317L6.71666 42.5161C5.76111 43.6374 5.76112 45.2866 6.71666 46.4078L14.9697 56.0922C15.3791 56.5727 15.6266 57.1702 15.6768 57.7995L16.689 70.4831C16.8062 71.9517 17.9723 73.1178 19.4408 73.235L32.1245 74.2471C32.7538 74.2974 33.3512 74.5448 33.8317 74.9543L43.5161 83.2073C44.6374 84.1628 46.2866 84.1628 47.4078 83.2073L57.0922 74.9543C57.5727 74.5448 58.1702 74.2974 58.7995 74.2471L71.4831 73.235C72.9517 73.1178 74.1178 71.9517 74.235 70.4831L75.2471 57.7995C75.2974 57.1702 75.5448 56.5727 75.9543 56.0922L84.2073 46.4078C85.1628 45.2866 85.1628 43.6374 84.2073 42.5161L75.9543 32.8317C75.5448 32.3512 75.2974 31.7538 75.2471 31.1245L74.235 18.4408C74.1178 16.9723 72.9517 15.8062 71.4831 15.689L58.7995 14.6768C58.1702 14.6266 57.5727 14.3791 57.0922 13.9697L47.4078 5.71666ZM34.4426 37.1156C36.4712 37.1156 38.1156 35.4712 38.1156 33.4426C38.1156 31.414 36.4712 29.7695 34.4426 29.7695C32.414 29.7695 30.7695 31.414 30.7695 33.4426C30.7695 35.4712 32.414 37.1156 34.4426 37.1156ZM60.1508 55.4812C60.1508 57.5097 58.5063 59.1542 56.4777 59.1542C54.4492 59.1542 52.8047 57.5097 52.8047 55.4812C52.8047 53.4526 54.4492 51.8081 56.4777 51.8081C58.5063 51.8081 60.1508 53.4526 60.1508 55.4812ZM57.01 33.9732C57.3029 33.6803 57.3029 33.2054 57.01 32.9125C56.7171 32.6196 56.2423 32.6196 55.9494 32.9125L33.9111 54.9508C33.6182 55.2437 33.6182 55.7186 33.9111 56.0115C34.204 56.3044 34.6788 56.3044 34.9717 56.0115L57.01 33.9732Z" fill="black"/>
<path fill-rule="evenodd" clip-rule="evenodd" d="M41.4078 0.716655C40.2866 -0.238886 38.6374 -0.238885 37.5161 0.716656L27.8317 8.96966C27.3512 9.37913 26.7538 9.62659 26.1245 9.67681L13.4408 10.689C11.9723 10.8062 10.8062 11.9723 10.689 13.4408L9.67681 26.1245C9.62659 26.7538 9.37913 27.3512 8.96966 27.8317L0.716655 37.5161C-0.238886 38.6374 -0.238885 40.2866 0.716656 41.4078L8.96966 51.0922C9.37913 51.5727 9.62659 52.1702 9.67681 52.7995L10.689 65.4831C10.8062 66.9517 11.9723 68.1178 13.4408 68.235L26.1245 69.2471C26.7538 69.2974 27.3512 69.5448 27.8317 69.9543L37.5161 78.2073C38.6374 79.1628 40.2866 79.1628 41.4078 78.2073L51.0922 69.9543C51.5727 69.5448 52.1702 69.2974 52.7995 69.2471L65.4831 68.235C66.9517 68.1178 68.1178 66.9517 68.235 65.4831L69.2471 52.7995C69.2974 52.1702 69.5448 51.5727 69.9543 51.0922L78.2073 41.4078C79.1628 40.2866 79.1628 38.6374 78.2073 37.5161L69.9543 27.8317C69.5448 27.3512 69.2974 26.7538 69.2471 26.1245L68.235 13.4408C68.1178 11.9723 66.9517 10.8062 65.4831 10.689L52.7995 9.67681C52.1702 9.62659 51.5727 9.37913 51.0922 8.96966L41.4078 0.716655ZM28.4426 32.1156C30.4712 32.1156 32.1156 30.4712 32.1156 28.4426C32.1156 26.414 30.4712 24.7695 28.4426 24.7695C26.414 24.7695 24.7695 26.414 24.7695 28.4426C24.7695 30.4712 26.414 32.1156 28.4426 32.1156ZM54.1508 50.4812C54.1508 52.5097 52.5063 54.1542 50.4777 54.1542C48.4492 54.1542 46.8047 52.5097 46.8047 50.4812C46.8047 48.4526 48.4492 46.8081 50.4777 46.8081C52.5063 46.8081 54.1508 48.4526 54.1508 50.4812ZM52.01 29.9732C52.3029 29.6803 52.3029 29.2054 52.01 28.9125C51.7171 28.6196 51.2423 28.6196 50.9494 28.9125L28.9111 50.9508C28.6182 51.2437 28.6182 51.7186 28.9111 52.0115C29.204 52.3044 29.6788 52.3044 29.9717 52.0115L52.01 29.9732Z" fill="#AEFF1C"/>
</svg>
