<svg width="32" height="34" viewBox="0 0 32 34" fill="none" xmlns="http://www.w3.org/2000/svg">
<path d="M30 26.1589L17.2635 31.7358C16.4591 32.0881 15.5409 32.0881 14.7365 31.7358L2 26.1589M30 18.4962L17.2635 24.0731C16.4591 24.4253 15.5409 24.4253 14.7365 24.0731L2 18.4962M3.22711 10.6717L14.6087 16.2783C15.4845 16.7097 16.5155 16.7097 17.3913 16.2783L28.7729 10.6717C29.9194 10.1069 29.9194 8.49497 28.7729 7.93019L17.3913 2.32359C16.5155 1.89214 15.4845 1.89214 14.6087 2.32359L3.22711 7.93018C2.08059 8.49496 2.08059 10.1069 3.22711 10.6717Z" stroke="black" stroke-width="3" stroke-linecap="round" stroke-linejoin="round"/>
</svg>
