<svg width="34" height="34" viewBox="0 0 34 34" fill="none" xmlns="http://www.w3.org/2000/svg">
<path d="M13.6558 2.16286C15.0237 -0.718998 18.9762 -0.719004 20.3442 2.16286L22.7084 7.14347C23.2516 8.28786 24.3017 9.08106 25.5164 9.26457L30.8029 10.0632C33.8617 10.5254 35.0831 14.4337 32.8697 16.6769L29.0444 20.5538C28.1654 21.4445 27.7643 22.728 27.9718 23.9858L28.8749 29.46C29.3974 32.6275 26.1997 35.0429 23.4638 33.5475L18.7354 30.9629C17.649 30.369 16.351 30.369 15.2646 30.9629L10.5362 33.5475C7.80027 35.0429 4.60262 32.6275 5.12514 29.46L6.02818 23.9858C6.23567 22.728 5.83459 21.4446 4.95564 20.5538L1.13029 16.6769C-1.08313 14.4337 0.138258 10.5254 3.19712 10.0632L8.48363 9.26457C9.69831 9.08106 10.7484 8.28786 11.2916 7.14347L13.6558 2.16286Z" fill="black"/>
</svg>
