<svg width="38" height="38" viewBox="0 0 38 38" fill="none" xmlns="http://www.w3.org/2000/svg">
<path fill-rule="evenodd" clip-rule="evenodd" d="M14.7767 16.889C19.4405 16.889 23.2212 13.1083 23.2212 8.44452C23.2212 3.78074 19.4405 0 14.7767 0C10.1129 0 6.3322 3.78074 6.3322 8.44452C6.3322 13.1083 10.1129 16.889 14.7767 16.889ZM14.7779 38.0002C22.9395 38.0002 29.5558 34.2194 29.5558 29.5557C29.5558 24.8919 22.9395 21.1111 14.7779 21.1111C6.6163 21.1111 0 24.8919 0 29.5557C0 34.2194 6.6163 38.0002 14.7779 38.0002ZM23.1408 16.4996C25.1521 14.4118 26.3889 11.5727 26.3889 8.44479C26.3889 6.9573 26.1092 5.53513 25.5995 4.22803C28.9738 4.36759 31.6666 7.14729 31.6666 10.5559C31.6666 14.0538 28.8311 16.8893 25.3332 16.8893C24.5625 16.8893 23.8239 16.7516 23.1408 16.4996ZM32.7201 29.5555C32.7201 30.693 32.4673 31.7923 31.9961 32.8312C35.5986 31.7145 37.9979 29.7195 37.9979 27.4444C37.9979 24.2646 33.3112 21.6321 27.2033 21.1797C30.6036 23.2926 32.7201 26.2641 32.7201 29.5555Z" fill="white"/>
</svg>
