<svg width="60" height="55" viewBox="0 0 60 55" fill="none" xmlns="http://www.w3.org/2000/svg">
<path fill-rule="evenodd" clip-rule="evenodd" d="M49.6885 0.0729896C50.8268 0.377985 51.5023 1.54797 51.1973 2.68623L50.156 6.57248C49.851 7.71074 48.681 8.38623 47.5427 8.08124C46.4045 7.77624 45.729 6.60626 46.034 5.468L47.0753 1.58174C47.3803 0.443487 48.5503 -0.232006 49.6885 0.0729896ZM37.8946 4.89917C35.9805 1.58388 31.4046 1.06667 28.7988 3.87109L10.4531 23.6152C11.0932 24.1958 11.6552 24.8841 12.1104 25.6726L19.2228 37.9915C19.678 38.7801 19.9932 39.6111 20.1759 40.4557L46.4477 34.44C50.1793 33.5855 52.0194 29.364 50.1053 26.0487L37.8946 4.89917ZM15.0781 39.8672L7.96575 27.5483C6.78734 25.5072 4.17743 24.8079 2.13637 25.9863C0.0952999 27.1647 -0.604021 29.7746 0.574389 31.8157L7.68673 44.1346C8.86514 46.1757 11.475 46.875 13.5161 45.6966C15.5572 44.5182 16.2565 41.9083 15.0781 39.8672ZM31.7549 52.4407L26.3399 43.0616L35.0443 41.0684L39.1463 48.1733C40.3247 50.2144 39.6254 52.8243 37.5843 54.0027C35.5432 55.1811 32.9333 54.4818 31.7549 52.4407ZM54.338 13.8138C53.1998 13.5088 52.0298 14.1843 51.7248 15.3226C51.4198 16.4608 52.0953 17.6308 53.2336 17.9358L57.1198 18.9771C58.2581 19.2821 59.4281 18.6066 59.7331 17.4684C60.038 16.3301 59.3626 15.1601 58.2243 14.8551L54.338 13.8138Z" fill="#FF7F49"/>
</svg>
