<svg width="26" height="25" viewBox="0 0 26 25" fill="none" xmlns="http://www.w3.org/2000/svg">
<path d="M19.6667 11.2222C19.6667 10.551 19.5287 9.88639 19.2607 9.26628C18.9927 8.64618 18.5998 8.08273 18.1046 7.60812C17.6093 7.13351 17.0214 6.75703 16.3743 6.50017C15.7272 6.24331 15.0337 6.11111 14.3333 6.11111M25 11.2222C25 9.87982 24.7241 8.55056 24.1881 7.31035C23.652 6.07013 22.8663 4.94324 21.8758 3.99402C20.8853 3.0448 19.7094 2.29184 18.4153 1.77812C17.1212 1.26441 15.7341 1 14.3333 1M25 19.3413V21.4444C25 22.8558 23.8061 24 22.3333 24C10.5513 24 1 14.8467 1 3.55556C1 2.14416 2.19391 1 3.66667 1H5.86125C6.95166 1 7.93221 1.63621 8.33718 2.60645L9.42206 5.20562C9.93714 6.43967 9.37917 7.84609 8.13869 8.44049L7.66667 8.66667C7.66667 8.66667 8.33333 11.8611 11 14.4167C13.6667 16.9722 17 17.6111 17 17.6111L17.236 17.1588C17.8563 15.97 19.3238 15.4352 20.6115 15.9289L23.3237 16.9685C24.3361 17.3566 25 18.2963 25 19.3413Z" stroke="white" stroke-width="1.5" stroke-linecap="round"/>
</svg>
