<svg width="34" height="34" viewBox="0 0 34 34" fill="none" xmlns="http://www.w3.org/2000/svg">
<path d="M3.5 2C3.5 1.17157 2.82843 0.5 2 0.5C1.17157 0.5 0.5 1.17157 0.5 2H3.5ZM32 33.5C32.8284 33.5 33.5 32.8284 33.5 32C33.5 31.1716 32.8284 30.5 32 30.5V33.5ZM22.25 11C21.4216 11 20.75 11.6716 20.75 12.5C20.75 13.3284 21.4216 14 22.25 14V11ZM26.4146 13.3292L25.073 14L26.4146 13.3292ZM26.1584 16.1708C26.5288 16.9118 27.4299 17.2121 28.1708 16.8416C28.9118 16.4712 29.2121 15.5701 28.8416 14.8292L26.1584 16.1708ZM26.5045 14.0724L27.3269 12.8179L24.8179 11.1732L23.9955 12.4276L26.5045 14.0724ZM21.1466 19.5093L19.8922 18.6869L21.1466 19.5093ZM18.6089 19.4636L17.3257 20.2404L18.6089 19.4636ZM15.7467 14.7351L14.4635 15.5118V15.5118L15.7467 14.7351ZM13.1457 14.7953L11.8279 14.0788L13.1457 14.7953ZM8.18221 20.7835C7.78648 21.5112 8.05566 22.4221 8.78346 22.8178C9.51125 23.2135 10.4221 22.9443 10.8178 22.2165L8.18221 20.7835ZM0.5 2V26H3.5V2H0.5ZM8 33.5H32V30.5H8V33.5ZM0.5 26C0.5 30.1421 3.85787 33.5 8 33.5V30.5C5.51472 30.5 3.5 28.4853 3.5 26H0.5ZM22.25 14H25.073V11H22.25V14ZM25.073 14L26.1584 16.1708L28.8416 14.8292L27.7562 12.6584L25.073 14ZM25.073 14V14L27.7562 12.6584C27.2481 11.642 26.2093 11 25.073 11V14ZM23.9955 12.4276L19.8922 18.6869L22.4011 20.3317L26.5045 14.0724L23.9955 12.4276ZM19.8922 18.6869L17.0299 13.9583L14.4635 15.5118L17.3257 20.2404L19.8922 18.6869ZM11.8279 14.0788L8.18221 20.7835L10.8178 22.2165L14.4635 15.5118L11.8279 14.0788ZM17.0299 13.9583C15.8307 11.9772 12.9342 12.0442 11.8279 14.0788L14.4635 15.5118L14.4635 15.5118L17.0299 13.9583ZM19.8922 18.6869L17.3257 20.2404C18.4688 22.1287 21.1909 22.1777 22.4011 20.3317L19.8922 18.6869Z" fill="black"/>
</svg>
