<svg width="52" height="54" viewBox="0 0 52 54" fill="none" xmlns="http://www.w3.org/2000/svg">
<path fill-rule="evenodd" clip-rule="evenodd" d="M0 7.80723C0 3.49541 3.49218 0 7.8 0H44.2C48.5078 0 52 3.49542 52 7.80723V36.4337C52 40.7456 48.5078 44.241 44.2 44.241H27.95V50.0964H33.8C34.877 50.0964 35.75 50.9702 35.75 52.0482C35.75 53.1261 34.877 54 33.8 54H18.2C17.123 54 16.25 53.1261 16.25 52.0482C16.25 50.9702 17.123 50.0964 18.2 50.0964H24.05V44.241H7.8C3.49218 44.241 0 40.7455 0 36.4337V7.80723ZM21.45 36.4337C21.45 35.3558 22.323 34.4819 23.4 34.4819H28.6C29.677 34.4819 30.55 35.3558 30.55 36.4337C30.55 37.5117 29.677 38.3855 28.6 38.3855H23.4C22.323 38.3855 21.45 37.5117 21.45 36.4337Z" fill="#FF7F49"/>
</svg>
