<svg width="32" height="32" viewBox="0 0 32 32" fill="none" xmlns="http://www.w3.org/2000/svg">
<path fill-rule="evenodd" clip-rule="evenodd" d="M14.4091 1H17.5909C19.3482 1 20.7727 2.34315 20.7727 4C20.7727 5.89603 22.8014 7.10147 24.4667 6.19496L24.6358 6.1029C26.1577 5.27447 28.1036 5.7661 28.9823 7.20097L30.5732 9.79905C31.4518 11.2339 30.9304 13.0687 29.4086 13.8971C27.7425 14.8041 27.7425 17.1959 29.4086 18.1029C30.9304 18.9313 31.4518 20.7661 30.5732 22.201L28.9823 24.799C28.1036 26.2339 26.1577 26.7255 24.6358 25.8971L24.4667 25.805C22.8014 24.8985 20.7727 26.104 20.7727 28C20.7727 29.6569 19.3482 31 17.5909 31H14.4091C12.6518 31 11.2273 29.6569 11.2273 28C11.2273 26.104 9.19861 24.8985 7.53333 25.8051L7.36419 25.8971C5.84235 26.7256 3.89637 26.2339 3.01773 24.799L1.42682 22.201C0.548178 20.7661 1.0696 18.9313 2.59145 18.1029C4.25752 17.196 4.25752 14.804 2.59145 13.8971C1.0696 13.0687 0.54818 11.2339 1.42682 9.79903L3.01773 7.20095C3.89637 5.76607 5.84235 5.27445 7.36419 6.10287L7.53333 6.19495C9.19861 7.10145 11.2273 5.89602 11.2273 4C11.2273 2.34315 12.6518 1 14.4091 1ZM16 21C18.7614 21 21 18.7614 21 16C21 13.2386 18.7614 11 16 11C13.2386 11 11 13.2386 11 16C11 18.7614 13.2386 21 16 21Z" stroke="black" stroke-width="2" stroke-linejoin="round"/>
</svg>
