<svg width="32" height="36" viewBox="0 0 32 36" fill="none" xmlns="http://www.w3.org/2000/svg">
<path fill-rule="evenodd" clip-rule="evenodd" d="M3.55556 0H28.4444C30.4081 0 32 1.62749 32 3.63511V31.179C32 33.6967 29.5571 35.452 27.2401 34.5992L24.4636 33.5773C23.5961 33.258 22.6411 33.2957 21.8002 33.6826L17.4591 35.6798C16.5312 36.1067 15.4688 36.1067 14.5409 35.6798L10.1998 33.6826C9.35891 33.2957 8.40394 33.258 7.53636 33.5773L4.75989 34.5992C2.44287 35.452 0 33.6967 0 31.179V3.63511C0 1.6275 1.59188 0 3.55556 0ZM8.88889 7.72461C8.15251 7.72461 7.55556 8.33492 7.55556 9.08778C7.55556 9.84063 8.15251 10.4509 8.88889 10.4509H16C16.7364 10.4509 17.3333 9.84063 17.3333 9.08778C17.3333 8.33492 16.7364 7.72461 16 7.72461H8.88889ZM8.88889 14.9948C8.15251 14.9948 7.55556 15.6051 7.55556 16.358C7.55556 17.1109 8.15251 17.7212 8.88889 17.7212H23.1111C23.8475 17.7212 24.4444 17.1109 24.4444 16.358C24.4444 15.6051 23.8475 14.9948 23.1111 14.9948H8.88889ZM8.88889 22.265C8.15251 22.265 7.55556 22.8754 7.55556 23.6282C7.55556 24.3811 8.15251 24.9914 8.88889 24.9914H23.1111C23.8475 24.9914 24.4444 24.3811 24.4444 23.6282C24.4444 22.8754 23.8475 22.265 23.1111 22.265H8.88889Z" fill="white"/>
</svg>
