<svg width="130" height="130" viewBox="0 0 130 130" fill="none" xmlns="http://www.w3.org/2000/svg">
<path d="M73.6284 5.42354C69.8542 -1.32291 60.1458 -1.32291 56.3716 5.42354C53.6545 10.2804 47.4657 11.9387 42.6842 9.09106C36.0424 5.13555 27.6346 9.9898 27.7393 17.7195C27.8147 23.2842 23.2842 27.8147 17.7195 27.7393C9.98981 27.6346 5.13556 36.0424 9.09105 42.6842C11.9387 47.4657 10.2804 53.6545 5.42354 56.3716C-1.32291 60.1458 -1.32291 69.8542 5.42354 73.6284C10.2804 76.3455 11.9387 82.5343 9.09105 87.3158C5.13556 93.9576 9.98981 102.365 17.7195 102.261C23.2842 102.185 27.8147 106.716 27.7393 112.281C27.6346 120.01 36.0424 124.864 42.6842 120.909C47.4657 118.061 53.6545 119.72 56.3716 124.576C60.1458 131.323 69.8542 131.323 73.6284 124.576C76.3455 119.72 82.5343 118.061 87.3158 120.909C93.9576 124.864 102.365 120.01 102.261 112.281C102.185 106.716 106.716 102.185 112.281 102.261C120.01 102.365 124.864 93.9576 120.909 87.3158C118.061 82.5343 119.72 76.3455 124.576 73.6284C131.323 69.8542 131.323 60.1458 124.576 56.3716C119.72 53.6545 118.061 47.4657 120.909 42.6842C124.864 36.0424 120.01 27.6346 112.281 27.7393C106.716 27.8147 102.185 23.2842 102.261 17.7195C102.365 9.9898 93.9576 5.13555 87.3158 9.09106C82.5343 11.9387 76.3455 10.2804 73.6284 5.42354Z" fill="#FDEFE0"/>
</svg>
