<svg width="176" height="50" viewBox="0 0 176 50" fill="none" xmlns="http://www.w3.org/2000/svg">
<g clip-path="url(#clip0_301_1752)">
<rect width="1920" height="9200" transform="translate(-1645 -1061)" fill="white"/>
<path fill-rule="evenodd" clip-rule="evenodd" d="M25.3125 22.6149C25.3125 17.1607 28.9011 13.1855 34.4153 13.1855C40.1921 13.1855 43.7807 16.8833 43.168 24.2789H29.7764C30.039 26.59 31.877 28.1616 34.853 28.1616C36.3409 28.1616 38.4416 27.6069 39.4044 26.4976L42.0302 29.2709C40.1921 31.3047 37.3037 32.2291 34.6779 32.2291C28.8136 32.2291 25.3125 28.4389 25.3125 22.6149ZM34.5913 17.1602C32.3156 17.1602 30.39 18.3619 29.7773 20.673H39.0552C38.7926 18.3619 37.0421 17.1602 34.5913 17.1602Z" fill="black"/>
<path d="M52.9107 28.3979C51.3831 28.3979 50.3647 27.5982 50.3647 25.9097V18.4451H55.864V14.7128H50.3647V9.8252L45.4766 10.2695V14.7128V18.4451V25.9097C45.4766 30.2641 48.328 32.3969 52.6052 32.2191C54.0309 32.2191 55.3548 31.9525 56.6787 31.5082L55.2529 27.8647C54.5401 28.2202 53.7254 28.3979 52.9107 28.3979Z" fill="black"/>
<path d="M86.0374 13.1855C84.2686 13.1855 82.4998 13.5645 81.1733 15.8384L80.8195 13.6593H76.8398V32.2291H81.0848V22.3757C81.0848 18.9649 83.1189 17.6385 85.4183 17.6385C86.8333 17.6385 87.4524 17.828 88.3367 18.586L90.2824 14.6067C89.3095 13.6593 87.8061 13.1855 86.0374 13.1855Z" fill="black"/>
<path fill-rule="evenodd" clip-rule="evenodd" d="M90.2852 22.7073C90.2852 17.4797 93.7117 13.1855 99.159 13.1855C104.606 13.1855 108.121 17.4797 108.209 22.7073C108.209 27.935 104.782 32.2291 99.2468 32.2291C93.6238 32.2291 90.2852 27.935 90.2852 22.7073ZM94.5 22.6145C94.5 25.4151 96.0815 28.0289 99.1566 28.0289C102.319 28.0289 103.901 25.4151 103.813 22.6145C103.813 19.9074 102.056 17.2002 99.1566 17.2002C96.0815 17.2002 94.5 19.9074 94.5 22.6145Z" fill="black"/>
<path d="M124.191 23.8772C124.191 26.7481 122.449 29.1405 119.837 29.1405C117.138 29.1405 115.745 26.9395 115.745 24.1643V14.3076H111.566V24.1643C111.566 30.0018 114.527 33.3512 118.619 33.3512C120.969 33.3512 122.623 32.3942 124.365 30.576L124.626 33.1598H128.37V14.3076H124.191V23.8772Z" fill="black"/>
<path d="M140.186 13.1855C138.01 13.1855 136.356 14.1473 134.614 15.9748L134.353 13.3779H130.609V32.2291H134.788V22.6111C134.788 19.7258 136.53 17.3213 139.142 17.3213C141.84 17.3213 143.233 19.5334 143.233 22.3226V32.1329H147.413V22.515C147.413 16.5518 144.191 13.1855 140.186 13.1855Z" fill="black"/>
<path fill-rule="evenodd" clip-rule="evenodd" d="M164.134 17.0579V7.58594H168.699V31.8797H164.419L164.134 29.5117C162.707 31.5289 160.424 32.2305 158.141 32.2305C152.625 32.2305 148.535 28.8978 148.535 23.2848C148.535 17.4087 152.625 14.3391 158.046 14.3391C159.949 14.3391 163.087 15.3038 164.134 17.0579ZM153.102 23.2842C153.102 26.3538 155.479 28.371 158.428 28.371C161.281 28.371 163.754 26.4415 163.849 23.2842C163.849 20.3023 161.376 18.2851 158.428 18.2851C155.479 18.2851 153.102 20.2146 153.102 23.2842Z" fill="black"/>
<path fill-rule="evenodd" clip-rule="evenodd" d="M62.7913 13.5812C65.0897 12.9377 69.3188 13.0296 71.4333 14.2248C73.1801 15.2361 74.2833 16.9828 74.5592 19.1892C74.6203 21.0245 74.6001 22.819 74.5797 24.627C74.5694 25.5361 74.5592 26.4486 74.5592 27.3713V31.968H69.9623V30.2213C69.7669 30.3515 69.5946 30.4703 69.4331 30.5816C69.1386 30.7844 68.8801 30.9625 68.5833 31.1406C65.8252 32.9793 60.8607 32.4277 58.8381 29.9455C56.9993 27.5552 57.459 22.8666 61.3203 21.8553C62.3774 21.5533 63.7928 21.3615 65.1741 21.1743C66.3156 21.0197 67.4339 20.8681 68.3075 20.6601C68.8591 20.5682 69.7785 20.3843 69.7785 19.9247C69.8704 18.9134 69.7785 18.6376 69.2269 18.086C68.2156 16.9828 66.2849 16.9828 64.9978 17.1667C63.251 17.4425 62.6075 18.1779 62.2397 20.2924L58.0106 19.3731C58.1026 16.6151 59.8494 14.4086 62.7913 13.5812ZM66.0085 28.3827C66.744 28.2908 67.3875 28.015 67.9392 27.7392L68.123 27.5553C68.7666 27.0956 69.1343 26.544 69.4101 25.8085C69.5021 25.5327 69.594 25.165 69.594 24.8892C69.6859 24.6134 69.6859 24.2457 69.6859 23.9699C69.6859 23.9239 69.6859 23.9009 69.6745 23.8894C69.663 23.8779 69.64 23.8779 69.594 23.8779H69.3182L68.7666 23.9699L66.6521 24.1537C66.4353 24.1871 66.2156 24.2174 65.9939 24.248C64.9931 24.3861 63.9531 24.5296 62.9746 24.9811C62.6069 25.0731 62.3311 25.3489 62.0552 25.6247C61.8714 25.9005 61.6875 26.1763 61.6875 26.544C61.6875 26.9117 61.7794 27.2795 61.9633 27.5553C62.2391 28.1069 62.8827 28.3827 63.4343 28.4746C64.2617 28.6585 65.1811 28.5666 66.0085 28.3827Z" fill="black"/>
<path d="M14.4129 32.4016C8.59989 32.4016 5.14844 28.0688 5.14844 22.7941C5.14844 17.5193 8.69072 13.1865 14.322 13.1865H25.3122C25.3122 13.1865 24.8581 16.2007 22.1332 17.331H14.4129C11.2339 17.331 9.599 20.0625 9.599 22.7941C9.599 25.6198 11.2339 28.163 14.4129 28.163C17.5918 28.163 19.2267 25.5256 19.2267 22.6999C19.2267 21.1928 18.6818 19.6858 17.6827 18.6496H22.8599C23.4048 19.9683 23.6773 21.287 23.6773 22.6999C23.6773 25.714 22.4965 28.4456 20.4983 30.141C23.0415 31.7423 23.6773 33.8145 23.6773 36.0751C23.6773 41.3499 19.7717 44.5524 14.5037 44.5524C9.50817 44.5524 5.6934 41.6324 5.23927 37.017L9.68983 36.6403C9.96231 38.8067 12.0513 40.2196 14.4129 40.2196C17.0469 40.2196 19.0451 38.7125 19.0451 36.1693C19.0451 33.6261 16.6836 32.4016 14.4129 32.4016V32.4016Z" fill="black"/>
</g>
<defs>
<clipPath id="clip0_301_1752">
<rect width="1920" height="9200" fill="white" transform="translate(-1645 -1061)"/>
</clipPath>
</defs>
</svg>
