<svg width="159" height="60" viewBox="0 0 159 60" fill="none" xmlns="http://www.w3.org/2000/svg">
<mask id="path-1-inside-1_193_837" fill="white">
<path d="M0 30C0 13.4315 13.4315 0 30 0C46.5685 0 60 13.4315 60 30C60 46.5685 46.5685 60 30 60C13.4315 60 0 46.5685 0 30Z"/>
</mask>
<path d="M0 30C0 13.4315 13.4315 0 30 0C46.5685 0 60 13.4315 60 30C60 46.5685 46.5685 60 30 60C13.4315 60 0 46.5685 0 30Z" fill="#FF7F49"/>
<path d="M-1 30C-1 12.8792 12.8792 -1 30 -1C47.1208 -1 61 12.8792 61 30H59C59 13.9837 46.0163 1 30 1C13.9837 1 1 13.9837 1 30H-1ZM61 33C61 50.1208 47.1208 64 30 64C12.8792 64 -1 50.1208 -1 33L1 30C1 44.3594 13.9837 56 30 56C46.0163 56 59 44.3594 59 30L61 33ZM30 64C12.8792 64 -1 50.1208 -1 33V30C-1 12.8792 12.8792 -1 30 -1V1C13.9837 1 1 13.9837 1 30C1 44.3594 13.9837 56 30 56V64ZM30 -1C47.1208 -1 61 12.8792 61 30V33C61 50.1208 47.1208 64 30 64V56C46.0163 56 59 44.3594 59 30C59 13.9837 46.0163 1 30 1V-1Z" fill="black" mask="url(#path-1-inside-1_193_837)"/>
<path d="M25.095 41.45C23.515 41.45 22.09 41.175 20.82 40.625C19.56 40.075 18.52 39.29 17.7 38.27C16.89 37.24 16.375 36.02 16.155 34.61L19.905 34.04C20.225 35.32 20.88 36.31 21.87 37.01C22.87 37.71 24.02 38.06 25.32 38.06C26.09 38.06 26.815 37.94 27.495 37.7C28.175 37.46 28.725 37.11 29.145 36.65C29.575 36.19 29.79 35.625 29.79 34.955C29.79 34.655 29.74 34.38 29.64 34.13C29.54 33.87 29.39 33.64 29.19 33.44C29 33.24 28.75 33.06 28.44 32.9C28.14 32.73 27.79 32.585 27.39 32.465L21.81 30.815C21.33 30.675 20.81 30.49 20.25 30.26C19.7 30.02 19.175 29.695 18.675 29.285C18.185 28.865 17.78 28.335 17.46 27.695C17.15 27.045 16.995 26.245 16.995 25.295C16.995 23.905 17.345 22.74 18.045 21.8C18.755 20.85 19.705 20.14 20.895 19.67C22.095 19.2 23.425 18.97 24.885 18.98C26.365 18.99 27.685 19.245 28.845 19.745C30.005 20.235 30.975 20.95 31.755 21.89C32.535 22.83 33.085 23.965 33.405 25.295L29.52 25.97C29.36 25.21 29.05 24.565 28.59 24.035C28.14 23.495 27.585 23.085 26.925 22.805C26.275 22.525 25.58 22.375 24.84 22.355C24.12 22.345 23.45 22.455 22.83 22.685C22.22 22.905 21.725 23.225 21.345 23.645C20.975 24.065 20.79 24.555 20.79 25.115C20.79 25.645 20.95 26.08 21.27 26.42C21.59 26.75 21.985 27.015 22.455 27.215C22.935 27.405 23.42 27.565 23.91 27.695L27.78 28.775C28.31 28.915 28.905 29.105 29.565 29.345C30.225 29.585 30.86 29.92 31.47 30.35C32.08 30.78 32.58 31.345 32.97 32.045C33.37 32.745 33.57 33.635 33.57 34.715C33.57 35.835 33.335 36.82 32.865 37.67C32.405 38.51 31.78 39.21 30.99 39.77C30.2 40.33 29.295 40.75 28.275 41.03C27.265 41.31 26.205 41.45 25.095 41.45ZM29.9168 41V19.4H43.8668V22.79H33.5318V28.115H42.0668V31.505H33.5318V37.61H43.8668V41H29.9168Z" fill="white"/>
<path d="M79.628 43.51C77.8147 43.51 76.177 43.1927 74.715 42.558C73.2643 41.912 72.0687 40.994 71.128 39.804C70.1987 38.6027 69.6093 37.1747 69.36 35.52L74.188 34.806C74.528 36.2113 75.2307 37.2937 76.296 38.053C77.3613 38.8123 78.574 39.192 79.934 39.192C80.6933 39.192 81.43 39.073 82.144 38.835C82.858 38.597 83.4417 38.2457 83.895 37.781C84.3597 37.3163 84.592 36.744 84.592 36.064C84.592 35.8147 84.5523 35.5767 84.473 35.35C84.405 35.112 84.286 34.891 84.116 34.687C83.946 34.483 83.7023 34.2903 83.385 34.109C83.079 33.9277 82.688 33.7633 82.212 33.616L75.854 31.746C75.378 31.61 74.8227 31.4173 74.188 31.168C73.5647 30.9187 72.9583 30.5617 72.369 30.097C71.7797 29.6323 71.2867 29.0203 70.89 28.261C70.5047 27.4903 70.312 26.5213 70.312 25.354C70.312 23.7107 70.7257 22.345 71.553 21.257C72.3803 20.169 73.4853 19.3587 74.868 18.826C76.2507 18.2933 77.7807 18.0327 79.458 18.044C81.1467 18.0667 82.654 18.3557 83.98 18.911C85.306 19.4663 86.4167 20.2767 87.312 21.342C88.2073 22.396 88.8533 23.688 89.25 25.218L84.252 26.068C84.0707 25.2747 83.7363 24.606 83.249 24.062C82.7617 23.518 82.178 23.1043 81.498 22.821C80.8293 22.5377 80.1267 22.3847 79.39 22.362C78.6647 22.3393 77.979 22.4413 77.333 22.668C76.6983 22.8833 76.177 23.2007 75.769 23.62C75.3723 24.0393 75.174 24.538 75.174 25.116C75.174 25.6487 75.3383 26.085 75.667 26.425C75.9957 26.7537 76.4093 27.02 76.908 27.224C77.4067 27.428 77.9167 27.598 78.438 27.734L82.688 28.89C83.3227 29.06 84.0253 29.2867 84.796 29.57C85.5667 29.842 86.3033 30.2273 87.006 30.726C87.72 31.2133 88.3037 31.8593 88.757 32.664C89.2217 33.4687 89.454 34.4887 89.454 35.724C89.454 37.0387 89.1763 38.189 88.621 39.175C88.077 40.1497 87.3403 40.96 86.411 41.606C85.4817 42.2407 84.4277 42.7167 83.249 43.034C82.0817 43.3513 80.8747 43.51 79.628 43.51ZM100.025 43.51C98.1432 43.51 96.4829 43.1077 95.0435 42.303C93.6155 41.487 92.4935 40.3707 91.6775 38.954C90.8729 37.526 90.4705 35.894 90.4705 34.058C90.4705 32.052 90.8672 30.3067 91.6605 28.822C92.4539 27.3373 93.5475 26.187 94.9415 25.371C96.3355 24.5437 97.9392 24.13 99.7525 24.13C101.679 24.13 103.317 24.5833 104.666 25.49C106.014 26.3967 107.012 27.6717 107.658 29.315C108.304 30.9583 108.53 32.8907 108.338 35.112H103.765V33.412C103.765 31.542 103.464 30.199 102.864 29.383C102.274 28.5557 101.305 28.142 99.9565 28.142C98.3812 28.142 97.2195 28.6237 96.4715 29.587C95.7349 30.539 95.3665 31.95 95.3665 33.82C95.3665 35.5313 95.7349 36.8573 96.4715 37.798C97.2195 38.7273 98.3132 39.192 99.7525 39.192C100.659 39.192 101.436 38.9937 102.082 38.597C102.728 38.2003 103.221 37.628 103.561 36.88L108.185 38.206C107.493 39.8833 106.4 41.1867 104.904 42.116C103.419 43.0453 101.793 43.51 100.025 43.51ZM93.9385 35.112V31.678H106.111V35.112H93.9385ZM118.738 43.51C116.891 43.51 115.27 43.0963 113.876 42.269C112.482 41.4417 111.394 40.3027 110.612 38.852C109.841 37.39 109.456 35.7127 109.456 33.82C109.456 31.9047 109.853 30.2217 110.646 28.771C111.439 27.309 112.533 26.17 113.927 25.354C115.321 24.538 116.925 24.13 118.738 24.13C120.585 24.13 122.206 24.5437 123.6 25.371C125.005 26.1983 126.099 27.343 126.881 28.805C127.663 30.2557 128.054 31.9273 128.054 33.82C128.054 35.724 127.657 37.407 126.864 38.869C126.082 40.3197 124.988 41.4587 123.583 42.286C122.189 43.102 120.574 43.51 118.738 43.51ZM118.738 39.192C120.223 39.192 121.328 38.6933 122.053 37.696C122.79 36.6873 123.158 35.3953 123.158 33.82C123.158 32.188 122.784 30.8847 122.036 29.91C121.299 28.9353 120.2 28.448 118.738 28.448C117.729 28.448 116.902 28.6747 116.256 29.128C115.61 29.5813 115.128 30.2103 114.811 31.015C114.505 31.8197 114.352 32.7547 114.352 33.82C114.352 35.4633 114.72 36.7723 115.457 37.747C116.205 38.7103 117.299 39.192 118.738 39.192ZM152.193 43V32.154C152.193 30.9413 151.904 30.0007 151.326 29.332C150.759 28.652 149.971 28.312 148.963 28.312C148.317 28.312 147.756 28.465 147.28 28.771C146.804 29.0657 146.43 29.485 146.158 30.029C145.897 30.5617 145.767 31.1793 145.767 31.882L143.829 30.59C143.829 29.332 144.123 28.2213 144.713 27.258C145.313 26.2947 146.112 25.5467 147.11 25.014C148.118 24.47 149.235 24.198 150.459 24.198C152.555 24.198 154.136 24.8213 155.202 26.068C156.278 27.3033 156.817 28.924 156.817 30.93V43H152.193ZM130.059 43V24.64H134.139V30.726H134.717V43H130.059ZM141.143 43V32.154C141.143 30.9413 140.854 30.0007 140.276 29.332C139.709 28.652 138.921 28.312 137.913 28.312C136.949 28.312 136.173 28.6463 135.584 29.315C135.006 29.9723 134.717 30.828 134.717 31.882L132.779 30.522C132.779 29.3207 133.079 28.244 133.68 27.292C134.28 26.34 135.085 25.5863 136.094 25.031C137.114 24.4757 138.253 24.198 139.511 24.198C140.95 24.198 142.129 24.504 143.047 25.116C143.976 25.728 144.662 26.544 145.104 27.564C145.546 28.584 145.767 29.706 145.767 30.93V43H141.143Z" fill="black"/>
</svg>
